<svg xmlns="http://www.w3.org/2000/svg" width="40" height="40" viewBox="0 0 1000 1000">
  <rect width="1000" height="1000" rx="200" ry="200" fill="#fff"/>
  <g fill="none" stroke="#6965db" stroke-width="16" stroke-linecap="round" stroke-linejoin="miter" stroke-miterlimit="10">
    <!-- plug prongs -->
    <path d="M390 150 L390 300"/>
    <path d="M610 150 L610 300"/>
    <!-- plug housing -->
    <path d="M290 310 H710 Q750 310 750 350 V610 Q750 720 640 720 H360 Q250 720 250 610 V350 Q250 310 290 310 Z"/>
    <!-- neck + base pin -->
    <path d="M430 720 V780"/>
    <path d="M570 720 V780"/>
    <path d="M430 780 H570"/>
    <path d="M470 780 V850"/>
    <path d="M530 780 V850"/>
    <path d="M470 850 H530"/>
    <!-- slim pencil, drawn vertically then rotated to 45 deg -->
    <g transform="rotate(45 500 510)">
      <!-- eraser cap -->
      <path d="M479 362 L479 380 L521 380 L521 362 Q521 348 500 348 Q479 348 479 362 Z"/>
      <!-- ferrule band -->
      <path d="M479 402 L521 402"/>
      <!-- barrel -->
      <path d="M479 380 L479 600"/>
      <path d="M521 380 L521 600"/>
      <!-- facet ridge line -->
      <path d="M500 408 L500 596"/>
      <!-- wood cone -->
      <path d="M479 600 L490 652"/>
      <path d="M521 600 L510 652"/>
      <path d="M490 652 L510 652"/>
      <!-- graphite tip -->
      <path d="M490 652 L500 682 L510 652"/>
    </g>
  </g>
</svg>
